<svg width="26" height="26" viewBox="0 0 26 26" fill="none" xmlns="http://www.w3.org/2000/svg">
<path d="M8.47724 14.0835L13.7856 19.3919C14.0022 19.6085 14.1062 19.8613 14.0976 20.1502C14.0889 20.4391 13.9759 20.6919 13.7585 20.9085C13.5418 21.1071 13.289 21.2111 13.0002 21.2205C12.7113 21.2299 12.4585 21.1259 12.2418 20.9085L5.09182 13.7585C4.98349 13.6502 4.90657 13.5328 4.86107 13.4064C4.81557 13.2801 4.79354 13.1446 4.79499 13.0002C4.79643 12.8558 4.81918 12.7203 4.86324 12.5939C4.90729 12.4676 4.98385 12.3502 5.09291 12.2419L12.2429 5.09186C12.4415 4.89325 12.69 4.79395 12.9882 4.79395C13.2865 4.79395 13.5436 4.89325 13.7596 5.09186C13.9762 5.30853 14.0846 5.566 14.0846 5.86428C14.0846 6.16256 13.9762 6.41967 13.7596 6.63561L8.47724 11.9169H20.5835C20.8904 11.9169 21.1479 12.0209 21.3559 12.2289C21.5639 12.4369 21.6675 12.694 21.6668 13.0002C21.6661 13.3064 21.5621 13.5639 21.3548 13.7726C21.1475 13.9813 20.8904 14.085 20.5835 14.0835H8.47724Z" fill="#A08858"/>
</svg>
