<svg width="24" height="24" viewBox="0 0 24 24" fill="none" xmlns="http://www.w3.org/2000/svg">
<g filter="url(#filter0_g_184_391)">
<path fill-rule="evenodd" clip-rule="evenodd" d="M20.3 19.8V19.315C20.3 19.086 20.065 18.71 19.86 18.61L14.2 15.85C12.673 15.105 12.296 13.304 13.39 12.007L13.75 11.579C14.302 10.925 14.8 9.565 14.8 8.711V7C14.8 5.455 13.546 4.2 12 4.2C11.2576 4.20079 10.5459 4.49605 10.021 5.02098C9.49605 5.54591 9.20079 6.25764 9.2 7V8.71C9.2 9.566 9.696 10.92 10.25 11.576L10.61 12.005C11.707 13.304 11.325 15.104 9.8 15.848L4.14 18.61C3.937 18.709 3.7 19.089 3.7 19.315V19.8H20.3ZM2.5 20V19.315C2.5 18.63 2.998 17.832 3.614 17.531L9.274 14.769C10.095 14.369 10.286 13.481 9.694 12.779L9.332 12.35C8.596 11.478 8 9.85 8 8.71V7C8 5.93913 8.42143 4.92172 9.17157 4.17157C9.92172 3.42143 10.9391 3 12 3C13.0609 3 14.0783 3.42143 14.8284 4.17157C15.5786 4.92172 16 5.93913 16 7V8.71C16 9.85 15.4 11.483 14.668 12.352L14.307 12.78C13.717 13.479 13.901 14.368 14.726 14.77L20.386 17.532C21.001 17.832 21.5 18.625 21.5 19.315V20C21.5 20.2652 21.3946 20.5196 21.2071 20.7071C21.0196 20.8946 20.7652 21 20.5 21H3.5C3.23478 21 2.98043 20.8946 2.79289 20.7071C2.60536 20.5196 2.5 20.2652 2.5 20Z" fill="#735821"/>
</g>
<defs>
<filter id="filter0_g_184_391" x="-0.99" y="-0.99" width="25.98" height="25.98" filterUnits="userSpaceOnUse" color-interpolation-filters="sRGB">
<feFlood flood-opacity="0" result="BackgroundImageFix"/>
<feBlend mode="normal" in="SourceGraphic" in2="BackgroundImageFix" result="shape"/>
<feTurbulence type="fractalNoise" baseFrequency="0.99900001287460327 0.99900001287460327" numOctaves="3" seed="4780" />
<feDisplacementMap in="shape" scale="1.9800000190734863" xChannelSelector="R" yChannelSelector="G" result="displacedImage" width="100%" height="100%" />
<feMerge result="effect1_texture_184_391">
<feMergeNode in="displacedImage"/>
</feMerge>
</filter>
</defs>
</svg>
